<svg xmlns="http://www.w3.org/2000/svg" height="40px" viewBox="0 -960 960 960" width="40px" fill="#1043b2"><path d="M480-429ZM235.33-120q-48.05 0-81.69-33.64T120-235.33V-480q0-23.06 8.66-44.2 8.65-21.13 25.01-37.47L399-806.33q17-17.34 38.18-25.5Q458.35-840 480-840q22.1 0 43.24 8.18 21.13 8.17 38.43 25.49l244.66 244.66q16.36 16.34 25.01 37.47Q840-503.06 840-480v244.67q0 48.05-33.44 81.69Q773.11-120 725.33-120h-490Zm0-66.67h490q20.4 0 34.2-14.16 13.8-14.17 13.8-34.5V-480q0-9.94-3.33-18.64-3.33-8.69-10.67-16.03l-161.66-162-70.34 70 149.34 150v173.34H283.33v-173.34L550-723.33l-36.04-35.72q-9.61-9.52-18.62-11.9-9.01-2.38-15.01-2.38t-15.5 2.33q-9.5 2.33-18.83 11.67L201.33-514.67q-7.33 7.43-11 16.1-3.66 8.67-3.66 18.57v244.67q0 20.33 14.16 34.5 14.17 14.16 34.5 14.16ZM350-350h260v-79L480-559 350-429v79Z"/></svg>